<?xml version="1.0" encoding="utf-8"?>
<!-- Generator: Adobe Illustrator 16.0.0, SVG Export Plug-In . SVG Version: 6.00 Build 0)  -->
<!DOCTYPE svg PUBLIC "-//W3C//DTD SVG 1.1//EN" "http://www.w3.org/Graphics/SVG/1.1/DTD/svg11.dtd">
<svg version="1.1" id="Layer_1" xmlns="http://www.w3.org/2000/svg" xmlns:xlink="http://www.w3.org/1999/xlink" x="0px" y="0px"
	 width="20px" height="16px" viewBox="0 0 20 16" enable-background="new 0 0 20 16" xml:space="preserve">
<path fill-rule="evenodd" clip-rule="evenodd" fill="#F15758" d="M-0.008,14.814V1.186C-0.008,0.531,0.554,0,1.243,0h11.259
	c0.689,0,1.251,0.531,1.251,1.186v3.259c0,0.491-0.421,0.889-0.938,0.889c-0.519,0-0.938-0.397-0.938-0.889V1.777H1.869v12.445
	h10.007v-2.667c0-0.491,0.42-0.889,0.938-0.889c0.518,0,0.938,0.397,0.938,0.889v3.259c0,0.654-0.562,1.186-1.251,1.186H1.243
	C0.554,16-0.008,15.469-0.008,14.814z M15.003,10.963c0-0.245,0.105-0.468,0.275-0.628l1.525-1.446H6.56
	C6.042,8.889,5.622,8.491,5.622,8s0.42-0.889,0.938-0.889h10.244l-1.525-1.446c-0.17-0.16-0.275-0.383-0.275-0.628
	c0-0.491,0.421-0.889,0.938-0.889c0.259,0,0.493,0.1,0.663,0.261l3.128,2.963c0.169,0.16,0.274,0.383,0.274,0.628
	s-0.105,0.468-0.274,0.629l-3.128,2.963c-0.17,0.16-0.404,0.26-0.663,0.26C15.424,11.852,15.003,11.454,15.003,10.963z"/>
</svg>
