<?xml version="1.0" encoding="utf-8"?>
<!-- Generator: Adobe Illustrator 19.0.0, SVG Export Plug-In . SVG Version: 6.00 Build 0)  -->
<svg version="1.1" id="Layer_1" xmlns="http://www.w3.org/2000/svg" xmlns:xlink="http://www.w3.org/1999/xlink" x="0px" y="0px"
	 viewBox="-290 278.3 260 40" style="enable-background:new -290 278.3 260 40;" xml:space="preserve">
<style type="text/css">
	.st0{fill:#FC2B41;}
</style>
<g>
	<g>
		<path class="st0" d="M-272.5,302.5c-0.8-1.4-1.9-2.8-3.3-4.3c-0.4-0.5-1.3-1.3-2.7-2.4c-1.2-1-2-1.8-2.6-2.5
			c-1.5-1.8-2.3-3.7-2.3-5.4c0-1.1,0.2-2.1,0.7-2.9c0.6-1,1.4-1.4,2.4-1.4c1,0,1.8,0.3,2.3,1c0.7,0.9,1.2,2.1,1.4,3.7l5.6-1
			c-0.1-1.7-0.6-3.2-1.3-4.5c-0.7-1.3-1.6-2.3-2.8-3.1c-1.5-0.9-3.3-1.4-5.3-1.4c-2.2,0-4,0.6-5.4,1.7c-2.4,1.8-3.5,4.5-3.5,8.1
			c0,2,0.4,3.8,1.3,5.5c0.8,1.5,2.2,3.2,4.1,5.1c2.3,2.2,4,3.9,5.2,5c1.5,1.6,2.2,3.2,2.2,4.8c0,1.1-0.2,2-0.6,2.6
			c-0.8,1.2-1.8,1.9-3.1,1.9c-0.9,0-1.7-0.3-2.4-1.1c-0.9-1-1.5-2.7-1.8-4.9l-5.6,0.4c0.1,2.1,0.5,3.9,1.3,5.5
			c0.7,1.6,1.7,2.9,3,3.8c1.5,1.1,3.4,1.7,5.7,1.7c1.2,0,2.3-0.1,3.2-0.4c1.7-0.5,3.1-1.5,4-2.8c1.4-1.9,2.1-4.3,2.1-7
			c0-1.1-0.3-2.3-0.9-3.7C-271.8,303.8-272.1,303.2-272.5,302.5z M-253.5,308.9c0,0.9-0.3,1.7-1,2.4c-0.6,0.7-1.4,1-2.4,1
			s-1.7-0.3-2.4-1c-0.7-0.7-1-1.4-1-2.4v-30.1h-5.7v30.2c0,2.6,0.9,4.8,2.7,6.6c1.8,1.8,4,2.7,6.5,2.7c2.6,0,4.7-0.9,6.5-2.7
			c1.8-1.8,2.7-4,2.7-6.6v-30.2h-6.1L-253.5,308.9L-253.5,308.9z M-233,278.8h-9.2v39h5.8v-14.7h3.4c2.5,0,4.7-0.9,6.5-2.7
			c1.8-1.8,2.7-4,2.7-6.6v-5.7c0-2.7-0.8-4.9-2.3-6.6C-227.9,279.7-230.2,278.8-233,278.8z M-229.5,293.9c0,0.9-0.3,1.7-1,2.4
			s-1.4,1-2.4,1h-3.5v-12.5h3.5c1,0,1.8,0.3,2.4,0.9c0.6,0.6,0.9,1.4,0.9,2.5V293.9z M-219.2,317.8h16.6v-5.9h-10.8v-10.6h7.9v-5.9
			h-7.9v-10.6h10.8v-5.9h-16.6V317.8z M-180.3,293.7v-5.7c0-2.8-0.7-5-2-6.6c-1.5-1.8-3.9-2.7-7.2-2.7h-9.2v39h5.8v-14.7h3.9
			l3.5,14.7h6.3l-4.3-17C-181.3,298.8-180.3,296.5-180.3,293.7z M-185.9,293.9c0,0.9-0.3,1.7-1,2.4s-1.4,1-2.4,1h-3.5v-12.5h3.5
			c2.2,0,3.3,1.1,3.3,3.4V293.9z M-165.8,278.3c-2.6,0-4.7,0.9-6.5,2.7c-1.8,1.8-2.7,4-2.7,6.6V309c0,2.6,0.9,4.8,2.7,6.6
			c1.8,1.8,4,2.7,6.6,2.7c2.5,0,4.7-0.9,6.5-2.7c1.8-1.8,2.7-4,2.7-6.6v-5.4h-6v5.4c0,0.9-0.3,1.7-1,2.4c-0.7,0.7-1.5,1-2.4,1
			s-1.7-0.3-2.4-1s-1-1.4-1-2.4v-21.4c0-0.9,0.3-1.7,1-2.4s1.4-1,2.4-1c0.9,0,1.7,0.3,2.4,1c0.7,0.7,1,1.5,1,2.4v4.6h6v-4.5
			c0-2.6-0.9-4.8-2.7-6.6C-161,279.2-163.2,278.3-165.8,278.3z M-142.7,278.3c-2.5,0-4.7,0.9-6.5,2.7c-1.8,1.8-2.7,4-2.7,6.6v21.3
			c0,2.6,0.9,4.8,2.7,6.6s4,2.7,6.5,2.7c2.6,0,4.7-0.9,6.5-2.7s2.7-4,2.7-6.6v-21.3c0-2.6-0.9-4.8-2.7-6.6
			C-137.9,279.2-140.1,278.3-142.7,278.3z M-139.5,308.8c0,0.9-0.3,1.7-1,2.4c-0.6,0.7-1.4,1-2.4,1s-1.7-0.3-2.4-1
			c-0.7-0.7-1-1.4-1-2.4v-21.4c0-0.9,0.3-1.7,1-2.4c0.7-0.7,1.4-1,2.4-1s1.7,0.3,2.4,1c0.6,0.7,1,1.4,1,2.4V308.8z M-119,278.8h-9.2
			v39h5.8v-14.7h3.4c2.5,0,4.7-0.9,6.5-2.7s2.7-4,2.7-6.6v-5.7c0-2.7-0.8-4.9-2.3-6.6C-113.9,279.7-116.2,278.8-119,278.8z
			 M-115.6,293.9c0,0.9-0.3,1.7-1,2.4s-1.4,1-2.4,1h-3.5v-12.5h3.5c1,0,1.8,0.3,2.4,0.9c0.6,0.6,0.9,1.4,0.9,2.5L-115.6,293.9
			L-115.6,293.9z M-85.9,278.8h-9.2v39h5.8v-14.7h3.4c2.5,0,4.7-0.9,6.5-2.7s2.7-4,2.7-6.6v-5.7c0-2.7-0.8-4.9-2.3-6.6
			C-80.8,279.7-83,278.8-85.9,278.8z M-82.4,293.9c0,0.9-0.3,1.7-1,2.4c-0.6,0.7-1.4,1-2.4,1h-3.5v-12.5h3.5c1,0,1.8,0.3,2.4,0.9
			c0.6,0.6,0.9,1.4,0.9,2.5V293.9z M-53.7,293.7v-5.7c0-2.8-0.7-5-2-6.6c-1.5-1.8-3.9-2.7-7.2-2.7h-9.2v39h5.8v-14.7h3.9l3.5,14.7
			h6.3l-4.3-17C-54.8,298.8-53.7,296.5-53.7,293.7z M-59.4,293.9c0,0.9-0.3,1.7-1,2.4c-0.6,0.7-1.4,1-2.4,1h-3.5v-12.5h3.5
			c2.2,0,3.3,1.1,3.3,3.4L-59.4,293.9L-59.4,293.9z M-32.7,281c-1.8-1.8-4-2.7-6.6-2.7c-2.5,0-4.7,0.9-6.5,2.7
			c-1.8,1.8-2.7,4-2.7,6.6v21.3c0,2.6,0.9,4.8,2.7,6.6s4,2.7,6.5,2.7c2.6,0,4.7-0.9,6.5-2.7c1.8-1.8,2.7-4,2.7-6.6v-21.3
			C-30,285-30.9,282.8-32.7,281z M-36.1,308.8c0,0.9-0.3,1.7-1,2.4c-0.6,0.7-1.4,1-2.4,1s-1.7-0.3-2.4-1c-0.7-0.7-1-1.4-1-2.4v-21.4
			c0-0.9,0.3-1.7,1-2.4c0.7-0.7,1.4-1,2.4-1s1.7,0.3,2.4,1c0.6,0.7,1,1.4,1,2.4V308.8z"/>
	</g>
</g>
</svg>
