<?xml version="1.0" encoding="utf-8"?>
<!-- Generator: Adobe Illustrator 16.0.0, SVG Export Plug-In . SVG Version: 6.00 Build 0)  -->
<!DOCTYPE svg PUBLIC "-//W3C//DTD SVG 1.1//EN" "http://www.w3.org/Graphics/SVG/1.1/DTD/svg11.dtd">
<svg version="1.1" id="Layer_1" xmlns="http://www.w3.org/2000/svg" xmlns:xlink="http://www.w3.org/1999/xlink" x="0px" y="0px"
	 width="19px" height="16px" viewBox="0 0 19 16" enable-background="new 0 0 19 16" xml:space="preserve">
<path fill-rule="evenodd" clip-rule="evenodd" fill="#F15758" d="M0.924,0h17.152C18.586,0,19,0.402,19,0.9
	C19,1.397,18.586,1.8,18.076,1.8H0.924C0.414,1.8,0,1.397,0,0.9C0,0.402,0.414,0,0.924,0z M0.924,7h17.152
	C18.586,7,19,7.402,19,7.899c0,0.498-0.414,0.9-0.924,0.9H0.924C0.414,8.8,0,8.397,0,7.899C0,7.402,0.414,7,0.924,7z M0.924,14.2
	h17.152C18.586,14.2,19,14.603,19,15.1S18.586,16,18.076,16H0.924C0.414,16,0,15.597,0,15.1S0.414,14.2,0.924,14.2z"/>
</svg>
